<svg width="15" height="19" viewBox="0 0 15 19" fill="none" xmlns="http://www.w3.org/2000/svg">
<g clip-path="url(#clip0_30_878)">
<path d="M7.32001 -1.14441e-05C5.38035 -1.32541e-05 3.51999 0.769826 2.14751 2.14043C0.775035 3.51103 0.0026498 5.37033 0 7.30999C0.104271 10.4528 1.34419 13.4513 3.49001 15.75C4.50996 16.9327 5.67595 17.9811 6.96001 18.87C7.06478 18.945 7.19122 18.9836 7.32001 18.98C7.4486 18.9822 7.5746 18.9437 7.68 18.87C8.96203 17.9823 10.1249 16.9337 11.14 15.75C13.2858 13.4513 14.5257 10.4528 14.63 7.30999C14.6274 5.37207 13.8563 3.51429 12.486 2.14397C11.1157 0.773653 9.25793 0.00263418 7.32001 -1.14441e-05ZM7.32001 17.52C5.97001 16.52 1.32001 12.66 1.32001 7.30999C1.32001 5.71869 1.95214 4.19259 3.07736 3.06737C4.20258 1.94215 5.72871 1.30999 7.32001 1.30999C8.91131 1.30999 10.4374 1.94215 11.5626 3.06737C12.6879 4.19259 13.32 5.71869 13.32 7.30999C13.32 12.66 8.66001 16.52 7.32001 17.52Z" fill="#E9521D"/>
<path d="M7.31989 4.40998C6.7435 4.408 6.1795 4.57725 5.69942 4.89625C5.21934 5.21524 4.84481 5.66962 4.62333 6.20176C4.40184 6.7339 4.34337 7.31981 4.45533 7.88523C4.5673 8.45064 4.84465 8.97009 5.25222 9.37766C5.6598 9.78523 6.17923 10.0626 6.74464 10.1745C7.31006 10.2865 7.89598 10.228 8.42812 10.0065C8.96026 9.78505 9.41464 9.41053 9.73363 8.93046C10.0526 8.45038 10.2219 7.88636 10.2199 7.30997C10.2172 6.54166 9.91087 5.80559 9.36758 5.2623C8.8243 4.71902 8.08821 4.41261 7.31989 4.40998ZM7.31989 8.9C7.00542 8.9 6.698 8.80674 6.43653 8.63202C6.17505 8.45731 5.97126 8.209 5.85092 7.91846C5.73057 7.62793 5.69908 7.30822 5.76043 6.99979C5.82178 6.69136 5.97322 6.40804 6.19558 6.18567C6.41795 5.96331 6.70126 5.81187 7.00969 5.75052C7.31812 5.68917 7.63781 5.72067 7.92835 5.84101C8.21888 5.96135 8.46721 6.16517 8.64193 6.42664C8.81664 6.68812 8.90989 6.9955 8.90989 7.30997C8.90989 7.73167 8.74237 8.13612 8.44419 8.4343C8.146 8.73248 7.74158 8.9 7.31989 8.9Z" fill="#E9521D"/>
</g>
<defs>
<clipPath id="clip0_30_878">
<rect width="14.63" height="18.98" fill="white"/>
</clipPath>
</defs>
</svg>
