<svg width="19" height="13" viewBox="0 0 19 13" fill="none" xmlns="http://www.w3.org/2000/svg">
<g clip-path="url(#clip0_30_883)">
<path d="M17.78 12.75H0.570007C0.418834 12.75 0.27385 12.6899 0.166954 12.5831C0.0600583 12.4762 0 12.3312 0 12.18V0.569992C0.002571 0.419622 0.0634563 0.276128 0.1698 0.169785C0.276143 0.063441 0.419637 0.00258625 0.570007 1.52588e-05H17.78C17.9304 0.00258625 18.0739 0.063441 18.1802 0.169785C18.2866 0.276128 18.3474 0.419622 18.35 0.569992V12.18C18.35 12.3312 18.2899 12.4762 18.1831 12.5831C18.0762 12.6899 17.9312 12.75 17.78 12.75ZM1.14001 11.61H17.21V1.14H1.14001V11.61Z" fill="#E9521D"/>
<path d="M9.18009 8.16C8.55993 8.16332 7.96084 7.93512 7.50009 7.52001L0.190088 1.00002C0.106377 0.92108 0.0475809 0.819358 0.0209296 0.707422C-0.00572181 0.595486 0.000932984 0.478218 0.040087 0.37002C0.0805818 0.261939 0.152939 0.168692 0.247576 0.102625C0.342213 0.036557 0.454679 0.000786833 0.570093 2.44904e-05H17.7801C17.8958 -0.000639835 18.0089 0.0345654 18.1039 0.100824C18.1988 0.167083 18.2708 0.261134 18.3101 0.37002C18.3534 0.477632 18.3623 0.596032 18.3354 0.708887C18.3085 0.821742 18.2473 0.923486 18.1601 1.00002L10.8601 7.52001C10.3983 7.93346 9.7999 8.16141 9.18009 8.16ZM2.07009 1.16L8.26009 6.69C8.5131 6.9163 8.84064 7.04141 9.18009 7.04141C9.51954 7.04141 9.84708 6.9163 10.1001 6.69L16.2901 1.16H2.07009Z" fill="#E9521D"/>
<path d="M17.7801 12.67H0.570093C0.455534 12.6714 0.343295 12.6376 0.248522 12.5733C0.153749 12.5089 0.0809956 12.417 0.040087 12.31C0.000932984 12.2018 -0.00572181 12.0845 0.0209296 11.9726C0.0475809 11.8606 0.106377 11.7589 0.190088 11.68L6.60009 5.94998C6.65633 5.8996 6.72201 5.8609 6.79333 5.83612C6.86465 5.81134 6.94018 5.80098 7.01554 5.80563C7.0909 5.81029 7.16459 5.82985 7.23232 5.86322C7.30005 5.89659 7.36048 5.94309 7.41009 6C7.46331 6.05214 7.50558 6.11436 7.53444 6.18304C7.5633 6.25173 7.57817 6.32549 7.57817 6.39999C7.57817 6.4745 7.5633 6.54823 7.53444 6.61691C7.50558 6.6856 7.46331 6.74785 7.41009 6.79999L2.12009 11.53H16.2901L10.9901 6.79999C10.885 6.69335 10.8262 6.54968 10.8262 6.39999C10.8262 6.25031 10.885 6.10664 10.9901 6C11.0388 5.9434 11.0984 5.8971 11.1653 5.86386C11.2321 5.83062 11.305 5.81109 11.3796 5.80643C11.4541 5.80177 11.5288 5.81208 11.5993 5.83673C11.6698 5.86138 11.7347 5.89989 11.7901 5.94998L18.2001 11.68C18.2881 11.7565 18.3504 11.8582 18.3788 11.9713C18.4072 12.0844 18.4002 12.2035 18.3588 12.3125C18.3174 12.4215 18.2435 12.5152 18.1472 12.5809C18.0509 12.6466 17.9367 12.6812 17.8201 12.68L17.7801 12.67Z" fill="#E9521D"/>
</g>
<defs>
<clipPath id="clip0_30_883">
<rect width="18.35" height="12.75" fill="white"/>
</clipPath>
</defs>
</svg>
