<svg width="16" height="16" viewBox="0 0 16 16" fill="none" xmlns="http://www.w3.org/2000/svg">
<g clip-path="url(#clip0_30_881)">
<path d="M-7.35782e-05 1.8C-0.00139994 1.56325 0.0442532 1.32858 0.134242 1.1096C0.224231 0.890613 0.356762 0.69165 0.524173 0.52424C0.691583 0.35683 0.890545 0.224306 1.10953 0.134317C1.32852 0.0443282 1.56317 -0.00131734 1.79992 9.02367e-06H4.21993C4.66024 -0.000288184 5.08522 0.161696 5.4136 0.455026C5.74198 0.748356 5.95073 1.15245 5.99993 1.59001C6.05977 2.12264 6.17026 2.64836 6.32992 3.16001C6.42863 3.47315 6.43982 3.80732 6.36226 4.12635C6.28471 4.44539 6.12137 4.73713 5.88993 4.97001L4.88993 5.97001C5.92403 7.8492 7.47074 9.3959 9.34993 10.43L10.3499 9.43C10.5813 9.19941 10.8713 9.03652 11.1886 8.95896C11.5058 8.8814 11.8383 8.89213 12.1499 8.99C12.6711 9.12772 13.203 9.22138 13.7399 9.27C14.1783 9.3215 14.5825 9.53229 14.8757 9.86231C15.1688 10.1923 15.3305 10.6186 15.3299 11.06V13.48C15.3317 13.7338 15.2794 13.9851 15.1766 14.2172C15.0738 14.4493 14.9229 14.6569 14.7337 14.8262C14.5446 14.9955 14.3216 15.1226 14.0796 15.1991C13.8375 15.2756 13.582 15.2998 13.3299 15.27C10.7765 15.0323 8.32841 14.1361 6.22505 12.669C4.12168 11.2019 2.435 9.21416 1.32992 6.9C0.586478 5.32614 0.126116 3.6336 -0.0300724 1.9C-0.0348978 1.84344 -0.0348978 1.78655 -0.0300724 1.72999L-7.35782e-05 1.8ZM5.20993 3.69999C5.21482 3.63675 5.21482 3.57323 5.20993 3.50999C5.02788 2.92643 4.90066 2.32719 4.82992 1.72001C4.81289 1.57501 4.74359 1.44117 4.63498 1.34361C4.52637 1.24604 4.38591 1.19145 4.23992 1.19001H1.79992C1.71641 1.18908 1.63371 1.20651 1.55767 1.24107C1.48164 1.27563 1.41414 1.32646 1.35993 1.38999C1.30013 1.45161 1.25476 1.52573 1.22709 1.607C1.19942 1.68828 1.19014 1.77469 1.19992 1.85999C1.49209 5.01288 2.87761 7.96434 5.1166 10.2033C7.35558 12.4423 10.307 13.8278 13.4599 14.12C13.5451 14.1272 13.6308 14.1166 13.7116 14.0891C13.7925 14.0616 13.8668 14.0176 13.9299 13.96C13.9922 13.9053 14.0415 13.8375 14.0744 13.7614C14.1072 13.6853 14.1228 13.6028 14.1199 13.52V11.1C14.1212 10.9538 14.0691 10.8122 13.9734 10.7017C13.8776 10.5912 13.7448 10.5195 13.5999 10.5C12.9899 10.4317 12.3874 10.3078 11.7999 10.13C11.6959 10.0958 11.5844 10.0918 11.4783 10.1184C11.3721 10.1449 11.2756 10.2009 11.1999 10.28L9.59993 11.87L9.21993 11.68C6.80621 10.4713 4.84862 8.51371 3.63993 6.09998L3.44992 5.71L5.03993 4.12C5.14842 4.00702 5.20928 3.85662 5.20993 3.69999Z" fill="#E9521D"/>
</g>
<defs>
<clipPath id="clip0_30_881">
<rect width="15.32" height="15.32" fill="white"/>
</clipPath>
</defs>
</svg>
