<svg width="27" height="19" viewBox="0 0 27 19" fill="none" xmlns="http://www.w3.org/2000/svg">
<g clip-path="url(#clip0_20_92)">
<path d="M26.9922 5.90576C26.9922 4.33947 26.3735 2.83735 25.2721 1.72981C24.1707 0.622272 22.6769 0 21.1193 0H5.87299C4.31538 0 2.82151 0.622272 1.72012 1.72981C0.618724 2.83735 0 4.33947 0 5.90576V13.0943C0 14.6606 0.618724 16.1627 1.72012 17.2702C2.82151 18.3778 4.31538 19 5.87299 19H21.1193C22.6769 19 24.1707 18.3778 25.2721 17.2702C26.3735 16.1627 26.9922 14.6606 26.9922 13.0943V5.90576ZM17.3777 9.86381L11.3025 13.2195C11.0381 13.3603 10.7969 13.1646 10.7969 12.8674V5.98406C10.7969 5.67899 11.0458 5.4833 11.3025 5.63974L17.4244 9.16753C17.4839 9.20617 17.5319 9.26011 17.5637 9.32375C17.5954 9.38739 17.6097 9.45839 17.6049 9.52942C17.6001 9.60046 17.5766 9.66906 17.5366 9.72784C17.4967 9.78662 17.4418 9.83355 17.3777 9.86381Z" fill="white"/>
</g>
<defs>
<clipPath id="clip0_20_92">
<rect width="27" height="19" fill="white"/>
</clipPath>
</defs>
</svg>
