<svg width="20" height="20" viewBox="0 0 20 20" fill="none" xmlns="http://www.w3.org/2000/svg">
<g clip-path="url(#clip0_20_98)">
<path d="M13.7491 0H6.25099C4.59312 0 3.00315 0.658475 1.83086 1.83076C0.658572 3.00305 0 4.59303 0 6.25089V13.7489C0.00210482 15.4053 0.661612 16.9934 1.83367 18.1639C3.00573 19.3345 4.5945 19.992 6.25099 19.992H13.7491C14.5696 19.993 15.3822 19.8323 16.1405 19.519C16.8989 19.2058 17.5881 18.7461 18.1687 18.1663C18.7493 17.5864 19.2098 16.8978 19.5241 16.1398C19.8383 15.3819 20 14.5694 20 13.7489V6.25089C20 4.59303 19.3415 3.00305 18.1692 1.83076C16.9969 0.658475 15.4069 0 13.7491 0ZM18.1255 13.7489C18.1234 14.9082 17.6614 16.0195 16.8409 16.8385C16.0203 17.6576 14.9084 18.1174 13.7491 18.1174H6.25099C5.09165 18.1174 3.97971 17.6576 3.15919 16.8385C2.33866 16.0195 1.8766 14.9082 1.87449 13.7489V6.25089C1.87449 5.09018 2.33562 3.97713 3.15638 3.15638C3.97713 2.33562 5.09027 1.8744 6.25099 1.8744H13.7491C14.9098 1.8744 16.0229 2.33562 16.8437 3.15638C17.6644 3.97713 18.1255 5.09018 18.1255 6.25089V13.7489Z" fill="white"/>
<path d="M9.99995 4.9961C9.00992 4.99453 8.04167 5.28668 7.21773 5.83556C6.39379 6.38445 5.75122 7.16535 5.37126 8.07956C4.9913 8.99378 4.89111 10 5.08329 10.9712C5.27548 11.9424 5.75139 12.835 6.45089 13.5356C7.15039 14.2362 8.04202 14.7134 9.01291 14.9072C9.9838 15.1009 10.9904 15.0024 11.9052 14.6238C12.82 14.2453 13.602 13.6039 14.1522 12.7809C14.7024 11.9578 14.996 10.9899 14.996 9.99992C14.997 9.34316 14.8686 8.69264 14.618 8.08557C14.3674 7.47851 13.9996 6.92687 13.5355 6.46211C13.0715 5.99734 12.5204 5.62872 11.9137 5.37715C11.307 5.12558 10.6567 4.9961 9.99995 4.9961ZM9.99995 13.1216C9.38032 13.1232 8.77424 12.9407 8.25838 12.5974C7.74253 12.2542 7.3402 11.7654 7.10235 11.1933C6.8645 10.6211 6.8018 9.99125 6.9223 9.38346C7.0428 8.77566 7.34107 8.21733 7.77922 7.77919C8.21736 7.34104 8.77569 7.04277 9.38349 6.92227C9.99128 6.80177 10.6211 6.86457 11.1933 7.10242C11.7655 7.34026 12.2542 7.7425 12.5975 8.25835C12.9407 8.77421 13.1231 9.38029 13.1215 9.99992C13.1215 10.8278 12.7926 11.6219 12.2072 12.2073C11.6218 12.7927 10.8278 13.1216 9.99995 13.1216Z" fill="white"/>
<path d="M15.3693 5.28996C15.7378 5.28996 16.0365 4.99125 16.0365 4.62276C16.0365 4.25428 15.7378 3.95557 15.3693 3.95557C15.0009 3.95557 14.7021 4.25428 14.7021 4.62276C14.7021 4.99125 15.0009 5.28996 15.3693 5.28996Z" fill="white"/>
</g>
<defs>
<clipPath id="clip0_20_98">
<rect width="20" height="20" fill="white"/>
</clipPath>
</defs>
</svg>
