<svg width="247" height="49" viewBox="0 0 247 49" fill="none" xmlns="http://www.w3.org/2000/svg">
<g clip-path="url(#clip0_17_40)">
<path d="M0 10.844C0 7.32328 2.20661 4.78844 5.47697 4.78844C6.25968 4.76589 7.0342 4.95303 7.72044 5.33061C8.40668 5.70818 8.97971 6.26243 9.3803 6.93605H9.51217V5.07876H11.2704V14.4881C11.2704 14.8402 11.4902 15.0161 11.8419 15.0161H12.3693V16.5652H11.2441C11.021 16.5689 10.7996 16.5273 10.5931 16.443C10.3866 16.3587 10.1992 16.2334 10.0423 16.0746C9.88546 15.9159 9.76229 15.727 9.68024 15.5194C9.59819 15.3117 9.55896 15.0898 9.56493 14.8665V14.752H9.43305C9.0418 15.415 8.47938 15.9604 7.8049 16.3306C7.13041 16.7008 6.36877 16.8822 5.60005 16.8558C2.3209 16.8558 0 14.356 0 10.844ZM9.57371 10.844C9.57371 8.00102 7.81545 6.3638 5.67038 6.3638C3.5253 6.3638 1.79342 8.22107 1.79342 10.844C1.79342 13.467 3.49014 15.245 5.69675 15.245C8.09677 15.2802 9.57371 13.2822 9.57371 10.8616V10.844Z" fill="white"/>
<path d="M21.4331 5.0786H23.1914V6.7599H23.3232C23.6598 6.12909 24.1699 5.60812 24.7932 5.25868C25.4164 4.90924 26.1267 4.74599 26.8397 4.78829C29.4771 4.78829 31.1211 6.80385 31.1211 9.33878V16.5651H29.3628V9.45311C29.3784 9.05726 29.3132 8.66246 29.1712 8.2927C29.0292 7.92294 28.8133 7.58611 28.5369 7.30271C28.2604 7.01931 27.9291 6.79535 27.5632 6.6445C27.1974 6.49365 26.8046 6.41902 26.409 6.42531C25.9791 6.42032 25.5526 6.50271 25.1553 6.66728C24.7581 6.83185 24.3982 7.07522 24.0975 7.38286C23.7968 7.69051 23.5615 8.05588 23.4058 8.45709C23.25 8.85831 23.1771 9.28699 23.1914 9.7172V16.5651H21.4331V5.0786Z" fill="white"/>
<path d="M39.7102 10.8263C39.7154 9.63981 40.0717 8.48154 40.7341 7.49767C41.3964 6.51379 42.3351 5.74853 43.4317 5.29849C44.5282 4.84845 45.7333 4.73376 46.8948 4.96907C48.0564 5.20438 49.1222 5.77905 49.9578 6.62049C50.7933 7.46193 51.361 8.53234 51.5892 9.69663C51.8174 10.8609 51.6959 12.067 51.24 13.1622C50.7841 14.2573 50.0142 15.1926 49.0277 15.85C48.0411 16.5074 46.8821 16.8574 45.697 16.8557C44.9035 16.8714 44.1151 16.7259 43.3793 16.428C42.6435 16.1302 41.9757 15.6859 41.4162 15.1224C40.8566 14.5589 40.4169 13.8877 40.1237 13.1493C39.8305 12.4109 39.6898 11.6207 39.7102 10.8263ZM49.9081 10.8263C49.8719 10.0013 49.5945 9.20504 49.1104 8.53644C48.6263 7.86785 47.9567 7.35648 47.1847 7.06553C46.4128 6.77457 45.5725 6.71689 44.7682 6.89985C43.9638 7.0828 43.2309 7.4983 42.6603 8.09463C42.0897 8.69096 41.7066 9.44187 41.5585 10.2543C41.4104 11.0667 41.5039 11.9048 41.8273 12.6645C42.1508 13.4241 42.6899 14.0719 43.3779 14.5276C44.0658 14.9832 44.8722 15.2264 45.697 15.2272C46.267 15.2316 46.8319 15.1192 47.3569 14.8972C47.882 14.6751 48.3562 14.3481 48.7505 13.936C49.1448 13.5239 49.4509 13.0357 49.6499 12.5009C49.849 11.9662 49.9368 11.3962 49.9081 10.8263Z" fill="white"/>
<path d="M61.5917 13.2821V6.53994H59.4203V5.06107H61.6972V1.72534H63.3324V5.06107H66.8489V6.53994H63.3324V13.2821C63.3324 14.5232 63.8335 15.0425 65.0907 15.0425H66.7522V16.5652H65.117C62.972 16.5652 61.5917 15.6146 61.5917 13.2821Z" fill="white"/>
<path d="M75.8512 0H77.6095V6.75999H77.7413C78.086 6.13616 78.5978 5.62108 79.2191 5.27274C79.8404 4.9244 80.5465 4.75665 81.2578 4.78838C81.8478 4.77723 82.4336 4.88905 82.978 5.11673C83.5225 5.34441 84.0137 5.68287 84.4205 6.11081C84.8272 6.53875 85.1406 7.04664 85.3408 7.60236C85.541 8.15807 85.6235 8.74951 85.5832 9.33888V16.5652H83.8249V9.4532C83.8357 9.05412 83.7655 8.657 83.6184 8.28592C83.4714 7.91484 83.2506 7.57753 82.9695 7.29442C82.6883 7.01131 82.3527 6.78839 81.9829 6.63901C81.6132 6.48962 81.2169 6.41692 80.8183 6.42541C80.3953 6.41246 79.9741 6.48462 79.5795 6.6375C79.1848 6.79038 78.8248 7.02088 78.5208 7.31548C78.2167 7.61008 77.9747 7.96288 77.8091 8.35275C77.6435 8.74261 77.5577 9.16171 77.5567 9.58535V16.5652H75.7985L75.8512 0Z" fill="white"/>
<path d="M94.1722 10.8615C94.1722 7.19996 96.6866 4.78833 99.7283 4.78833C103.192 4.78833 105.179 7.21759 105.179 10.6679V11.3104H95.9569C95.9569 13.8718 97.4778 15.3065 99.8602 15.3065C100.638 15.3457 101.405 15.1174 102.036 14.6595C102.666 14.2016 103.12 13.5415 103.324 12.7891L105.021 13.1851C104.69 14.2877 104.001 15.248 103.063 15.9132C102.125 16.5783 100.991 16.9101 99.8426 16.8557C96.3525 16.8557 94.1722 14.3999 94.1722 10.8615ZM103.394 9.89324C103.402 9.41585 103.312 8.94195 103.129 8.50119C102.945 8.06043 102.673 7.66249 102.329 7.33198C101.985 7.00146 101.576 6.74558 101.129 6.58051C100.681 6.41543 100.204 6.34455 99.7283 6.37249C98.7721 6.36009 97.8485 6.72049 97.1529 7.37753C96.4572 8.03457 96.0441 8.93674 96.0008 9.89324H103.394Z" fill="white"/>
<path d="M114.014 5.07865H115.772V6.99761H115.904C116.141 6.35533 116.567 5.8 117.126 5.40549C117.685 5.01098 118.35 4.79589 119.034 4.78833H119.781V6.5487H118.744C116.652 6.5487 115.79 8.24739 115.79 10.4303V16.5916H114.032L114.014 5.07865Z" fill="white"/>
<path d="M128.362 0H130.12V9.51487H133.162L137.663 16.5564H135.588L132.195 11.0993H130.12V16.5564H128.362V0Z" fill="white"/>
<path d="M144.494 10.8263C144.499 9.63981 144.855 8.48154 145.518 7.49767C146.18 6.51379 147.119 5.74853 148.215 5.29849C149.312 4.84845 150.517 4.73376 151.678 4.96907C152.84 5.20438 153.906 5.77905 154.741 6.62049C155.577 7.46193 156.144 8.53234 156.373 9.69663C156.601 10.8609 156.479 12.067 156.023 13.1622C155.568 14.2573 154.798 15.1926 153.811 15.85C152.825 16.5074 151.666 16.8574 150.481 16.8557C149.687 16.8714 148.899 16.7259 148.163 16.428C147.427 16.1302 146.759 15.6859 146.2 15.1224C145.64 14.5589 145.2 13.8877 144.907 13.1493C144.614 12.4109 144.473 11.6207 144.494 10.8263ZM154.692 10.8263C154.655 10.0013 154.378 9.20504 153.894 8.53644C153.41 7.86785 152.74 7.35648 151.968 7.06553C151.196 6.77457 150.356 6.71689 149.552 6.89985C148.747 7.0828 148.014 7.4983 147.444 8.09463C146.873 8.69096 146.49 9.44187 146.342 10.2543C146.194 11.0667 146.287 11.9048 146.611 12.6645C146.934 13.4241 147.473 14.0719 148.161 14.5276C148.849 14.9832 149.656 15.2264 150.481 15.2272C151.05 15.2316 151.615 15.1192 152.14 14.8972C152.665 14.6751 153.14 14.3481 153.534 13.936C153.928 13.5239 154.234 13.0357 154.433 12.5009C154.632 11.9662 154.72 11.3962 154.692 10.8263Z" fill="white"/>
<path d="M165.311 5.07847H167.07V6.75977H167.202C167.54 6.13038 168.05 5.61056 168.673 5.26135C169.296 4.91213 170.005 4.74803 170.718 4.78816C173.355 4.78816 174.999 6.80372 174.999 9.33866V16.565H173.241V9.45298C173.257 9.05713 173.192 8.66233 173.05 8.29258C172.907 7.92282 172.692 7.58598 172.415 7.30258C172.139 7.01918 171.807 6.79522 171.442 6.64437C171.076 6.49353 170.683 6.41889 170.287 6.42519C169.857 6.42024 169.43 6.50247 169.032 6.66694C168.635 6.83141 168.274 7.07479 167.973 7.3823C167.671 7.68982 167.435 8.05507 167.279 8.45632C167.122 8.85757 167.048 9.28644 167.061 9.71708V16.565H165.303L165.311 5.07847Z" fill="white"/>
<path d="M183.808 14.4263L190.841 6.68942V6.55748H183.984V5.07861H192.406V7.21762L185.417 14.9543V15.0864H192.52V16.5651H183.808V14.4263Z" fill="white"/>
<path d="M200.688 10.8615C200.688 7.19996 203.211 4.78833 206.252 4.78833C209.716 4.78833 211.703 7.21759 211.703 10.6679V11.3104H202.507C202.507 13.8718 204.028 15.3065 206.411 15.3065C207.188 15.3457 207.956 15.1174 208.586 14.6595C209.216 14.2016 209.671 13.5415 209.874 12.7891L211.571 13.1851C211.241 14.2877 210.552 15.248 209.613 15.9132C208.675 16.5783 207.541 16.9101 206.393 16.8557C202.903 16.8557 200.688 14.3999 200.688 10.8615ZM209.918 9.89324C209.926 9.41585 209.836 8.94195 209.653 8.50119C209.469 8.06043 209.197 7.66249 208.853 7.33198C208.509 7.00146 208.1 6.74558 207.653 6.58051C207.205 6.41543 206.728 6.34455 206.252 6.37249C205.296 6.36009 204.373 6.72049 203.677 7.37753C202.981 8.03457 202.568 8.93674 202.525 9.89324H209.918Z" fill="white"/>
<path d="M220.565 5.07879H222.235V6.89202H222.376C222.778 6.23319 223.346 5.69194 224.024 5.32269C224.701 4.95343 225.464 4.76927 226.235 4.78847C229.497 4.78847 231.835 7.28806 231.835 10.8C231.835 14.3119 229.611 16.8558 226.367 16.8558C225.578 16.8948 224.793 16.7147 224.1 16.3358C223.407 15.9568 222.831 15.3937 222.437 14.7082H222.305V21.644H220.547L220.565 5.07879ZM230.05 10.8C230.05 8.10663 228.292 6.39907 226.121 6.39907C223.738 6.39907 222.235 8.40589 222.235 10.8C222.235 13.6254 223.993 15.2626 226.165 15.2626C228.336 15.2626 230.05 13.4318 230.05 10.8Z" fill="white"/>
<path d="M241.734 13.2821V6.53994H239.571V5.06107H241.84V1.72534H243.475V5.06107H246.991V6.53994H243.475V13.2821C243.475 14.5232 243.985 15.0425 245.233 15.0425H246.886V16.5652H245.251C243.123 16.5652 241.734 15.6146 241.734 13.2821Z" fill="white"/>
<path d="M135.694 4.62086C135.37 4.65832 135.072 4.81365 134.855 5.05709C134.638 5.30053 134.519 5.61509 134.519 5.94114C134.519 6.26719 134.638 6.58197 134.855 6.82541C135.072 7.06885 135.37 7.22396 135.694 7.26142C135.879 7.28296 136.068 7.26487 136.246 7.20835C136.425 7.15182 136.589 7.05818 136.729 6.9335C136.869 6.80882 136.981 6.65605 137.057 6.48503C137.134 6.31401 137.174 6.12857 137.174 5.94114C137.174 5.75372 137.134 5.56849 137.057 5.39747C136.981 5.22645 136.869 5.07368 136.729 4.949C136.589 4.82431 136.425 4.73046 136.246 4.67394C136.068 4.61742 135.879 4.59933 135.694 4.62086Z" fill="#D17D3C"/>
<path d="M33.741 44.784C33.7142 44.486 33.7495 44.1858 33.8445 43.9021C33.9394 43.6184 34.0921 43.3574 34.2928 43.1358C34.4936 42.9142 34.738 42.7366 35.0107 42.6143C35.2834 42.4919 35.5784 42.4276 35.8772 42.4252C36.1828 42.4194 36.4846 42.4934 36.7528 42.6401C37.0211 42.7867 37.2465 43.0008 37.4069 43.2613H37.4597V40.5679H38.1366V47.0285H37.4861V46.3155H37.4333C37.2731 46.5689 37.0509 46.777 36.7878 46.9202C36.5247 47.0635 36.2295 47.1371 35.93 47.134C35.6283 47.1361 35.3295 47.0756 35.0524 46.9561C34.7754 46.8366 34.5261 46.6608 34.3203 46.4399C34.1146 46.2191 33.9569 45.9578 33.8571 45.6728C33.7574 45.3877 33.7179 45.0852 33.741 44.784ZM37.4861 44.784C37.4439 44.4917 37.3187 44.2176 37.1254 43.9945C36.9321 43.7714 36.6788 43.6088 36.3958 43.5258C36.1127 43.4428 35.8117 43.443 35.5288 43.5265C35.2458 43.6099 34.9928 43.7729 34.7998 43.9962C34.6068 44.2196 34.482 44.4938 34.4403 44.7862C34.3986 45.0785 34.4418 45.3768 34.5646 45.6453C34.6874 45.9138 34.8847 46.1413 35.133 46.3007C35.3813 46.4601 35.6702 46.5447 35.9652 46.5444C36.1826 46.5371 36.3962 46.485 36.5926 46.3914C36.789 46.2978 36.9641 46.1646 37.1068 46.0003C37.2495 45.8359 37.3569 45.644 37.4221 45.4362C37.4874 45.2284 37.5091 45.0094 37.4861 44.7928V44.784Z" fill="white"/>
<path d="M39.9388 44.7928C39.9173 44.4933 39.9569 44.1926 40.0554 43.909C40.1538 43.6253 40.309 43.3647 40.5114 43.1431C40.7138 42.9215 40.9592 42.7435 41.2326 42.6201C41.506 42.4966 41.8016 42.4304 42.1015 42.4252C42.3983 42.4145 42.6939 42.4678 42.9681 42.5818C43.2424 42.6958 43.4889 42.8677 43.6908 43.0857C43.8927 43.3038 44.0453 43.563 44.1382 43.8454C44.2311 44.1278 44.262 44.4269 44.229 44.7223V44.9688H40.6334C40.6136 45.1753 40.6391 45.3835 40.7081 45.5791C40.777 45.7747 40.8878 45.953 41.0326 46.1013C41.1774 46.2496 41.3528 46.3645 41.5465 46.438C41.7402 46.5115 41.9476 46.5418 42.1542 46.5268C42.4587 46.5431 42.7594 46.454 43.0059 46.2745C43.2525 46.095 43.4298 45.8358 43.5081 45.5409L44.1675 45.6994C44.0383 46.1293 43.7689 46.5034 43.4023 46.7619C43.0357 47.0203 42.5932 47.1482 42.1455 47.1252C41.842 47.1365 41.5397 47.0829 41.2586 46.9679C40.9774 46.853 40.724 46.6794 40.5152 46.4586C40.3064 46.2379 40.147 45.9753 40.0476 45.6881C39.9482 45.4008 39.9111 45.0956 39.9388 44.7928ZM43.5345 44.4144C43.5372 44.2281 43.5015 44.0431 43.4297 43.8712C43.3578 43.6992 43.2513 43.544 43.1169 43.4152C42.9824 43.2863 42.8228 43.1866 42.6481 43.1223C42.4734 43.0579 42.2873 43.0303 42.1015 43.0413C41.7295 43.0385 41.3708 43.1799 41.1005 43.4358C40.8301 43.6917 40.6691 44.0424 40.6509 44.4144H43.5345Z" fill="white"/>
<path d="M45.8553 45.7785L46.4795 45.6201C46.5323 46.2275 46.9542 46.5003 47.6312 46.5003C48.3081 46.5003 48.6686 46.1747 48.6686 45.717C48.6686 44.4584 46.0312 45.4177 46.0312 43.6397C46.0312 42.8827 46.7081 42.3899 47.6488 42.3899C48.0272 42.362 48.4025 42.475 48.7027 42.7073C49.0029 42.9396 49.2068 43.2748 49.2752 43.6485L48.6773 43.8245C48.6507 43.5658 48.523 43.3282 48.3221 43.1633C48.1212 42.9984 47.8634 42.9197 47.6048 42.9443C47.0422 42.9443 46.6817 43.2172 46.6817 43.6045C46.6817 44.7399 49.3631 43.7982 49.3631 45.6466C49.3631 46.5267 48.6686 47.0549 47.6048 47.0549C47.2058 47.1045 46.803 47.0002 46.478 46.7631C46.1531 46.5261 45.9305 46.1739 45.8553 45.7785Z" fill="white"/>
<path d="M51.7632 45.7433V43.1027H50.884V42.5219H51.7632V41.228H52.3961V42.5219H53.7764V43.1027H52.3961V45.7433C52.3961 46.2274 52.5983 46.4299 53.0643 46.4299H53.7148V47.0285H53.0731C52.2994 47.0197 51.7632 46.6499 51.7632 45.7433Z" fill="white"/>
<path d="M56.3346 43.1202H55.4554V42.5394H56.9763V47.0196H56.2994L56.3346 43.1202ZM56.1763 41.2367C56.1746 41.1367 56.2027 41.0386 56.2571 40.9548C56.3115 40.8709 56.3897 40.8051 56.4816 40.7661C56.5735 40.727 56.675 40.7165 56.773 40.7356C56.871 40.7547 56.9611 40.8024 57.0317 40.8731C57.1023 40.9438 57.1502 41.0341 57.1692 41.1323C57.1883 41.2304 57.1776 41.3321 57.1386 41.4241C57.0996 41.5161 57.034 41.5942 56.9503 41.6486C56.8666 41.7031 56.7685 41.7314 56.6686 41.7297C56.6037 41.7308 56.5391 41.7188 56.4788 41.6944C56.4186 41.6701 56.3638 41.6338 56.3179 41.5878C56.2719 41.5418 56.2357 41.487 56.2114 41.4267C56.1871 41.3663 56.1751 41.3018 56.1763 41.2367Z" fill="white"/>
<path d="M59.4027 42.5393H60.0796V43.1906H60.1324C60.2637 42.9468 60.4615 42.7453 60.7027 42.6097C60.944 42.4742 61.2188 42.4101 61.495 42.4249C61.7231 42.4207 61.9495 42.464 62.16 42.5522C62.3704 42.6403 62.5602 42.7712 62.7173 42.9368C62.8744 43.1024 62.9954 43.2989 63.0725 43.5138C63.1497 43.7287 63.1813 43.9575 63.1654 44.1853V47.0019H62.4885V44.2292C62.4945 44.0749 62.469 43.9211 62.4136 43.777C62.3581 43.633 62.274 43.5017 62.1662 43.3913C62.0584 43.2809 61.9292 43.1937 61.7866 43.1349C61.644 43.0762 61.491 43.0473 61.3368 43.0498C61.1688 43.0473 61.002 43.0791 60.8466 43.1431C60.6912 43.2071 60.5505 43.3021 60.4329 43.4222C60.3153 43.5424 60.2233 43.6853 60.1626 43.8421C60.1019 43.999 60.0737 44.1667 60.0796 44.3349V46.9754H59.4027V42.5393Z" fill="white"/>
<path d="M64.9676 44.7838C64.9396 44.4856 64.9738 44.1847 65.0683 43.9004C65.1628 43.6161 65.3154 43.3548 65.5164 43.1328C65.7174 42.9109 65.9623 42.7334 66.2357 42.6115C66.509 42.4896 66.8047 42.4261 67.1039 42.425C67.408 42.4208 67.708 42.4955 67.9746 42.642C68.2411 42.7886 68.4652 43.0019 68.6248 43.2611H68.6776V42.5393H69.3633V46.2096C69.3633 46.3416 69.4424 46.412 69.5831 46.412H69.7941V47.0195H69.3545C69.2668 47.0207 69.1798 47.004 69.0987 46.9707C69.0176 46.9374 68.944 46.8882 68.8824 46.8257C68.8208 46.7632 68.7725 46.6888 68.7403 46.6071C68.7081 46.5255 68.6928 46.4383 68.6951 46.3506V46.3065H68.6512C68.4969 46.5654 68.276 46.7779 68.0115 46.922C67.747 47.066 67.4487 47.136 67.1479 47.125C66.8474 47.1271 66.5497 47.0668 66.2737 46.9477C65.9977 46.8287 65.7493 46.6536 65.5444 46.4335C65.3395 46.2134 65.1824 45.9534 65.0831 45.6694C64.9838 45.3854 64.9445 45.0838 64.9676 44.7838ZM68.6951 44.7838C68.7237 44.5658 68.7059 44.3441 68.6428 44.1336C68.5797 43.923 68.4728 43.7282 68.3292 43.562C68.1855 43.3957 68.0083 43.2617 67.8093 43.1689C67.6102 43.0761 67.3938 43.0265 67.1743 43.0234C66.8203 42.9752 66.4601 43.0359 66.1415 43.1977C65.823 43.3595 65.5612 43.6147 65.391 43.9292C65.2209 44.2436 65.1504 44.6023 65.189 44.9579C65.2276 45.3134 65.3735 45.6488 65.6072 45.9193C65.8409 46.1898 66.1513 46.3825 66.4971 46.472C66.843 46.5614 67.2079 46.5435 67.5432 46.4202C67.8785 46.2969 68.1683 46.0741 68.3741 45.7818C68.5799 45.4894 68.6919 45.1414 68.6951 44.7838Z" fill="white"/>
<path d="M72.1765 45.7433V43.1027H71.2974V42.5219H72.1765V41.228H72.8095V42.5219H74.1897V43.1027H72.8095V45.7433C72.8095 46.2274 73.0117 46.4299 73.4864 46.4299H74.1281V47.0285H73.4952C72.7216 47.0197 72.1765 46.6499 72.1765 45.7433Z" fill="white"/>
<path d="M76.7303 43.1202H75.8512V42.5394H77.3721V47.0196H76.7303V43.1202ZM76.5809 41.2367C76.5809 41.1388 76.61 41.0431 76.6645 40.9619C76.719 40.8806 76.7964 40.8175 76.8869 40.7805C76.9773 40.7435 77.0768 40.7343 77.1725 40.7541C77.2682 40.7738 77.3559 40.8216 77.4244 40.8914C77.4929 40.9612 77.5391 41.0498 77.5571 41.146C77.5751 41.2422 77.5641 41.3415 77.5255 41.4314C77.4868 41.5213 77.4224 41.5977 77.3403 41.6508C77.2582 41.7039 77.1621 41.7314 77.0644 41.7297C77.0013 41.7285 76.939 41.7148 76.8813 41.6893C76.8235 41.6638 76.7714 41.6271 76.7281 41.5812C76.6847 41.5353 76.6509 41.4811 76.6286 41.4219C76.6064 41.3628 76.5961 41.2998 76.5985 41.2367H76.5809Z" fill="white"/>
<path d="M79.4733 44.7749C79.475 44.3118 79.6139 43.8597 79.8723 43.4757C80.1307 43.0916 80.497 42.7928 80.925 42.6172C81.3529 42.4416 81.8233 42.3971 82.2766 42.4891C82.7298 42.5812 83.1457 42.8058 83.4715 43.1344C83.7973 43.4631 84.0184 43.8812 84.107 44.3357C84.1955 44.7902 84.1474 45.2606 83.9688 45.6878C83.7902 46.1149 83.4891 46.4795 83.1036 46.7353C82.7181 46.9912 82.2655 47.1267 81.803 47.1249C81.4939 47.131 81.1867 47.0744 80.9002 46.9582C80.6136 46.842 80.3536 46.6688 80.1358 46.4491C79.918 46.2294 79.747 45.9678 79.6332 45.68C79.5193 45.3923 79.4649 45.0843 79.4733 44.7749ZM83.4469 44.7749C83.4247 44.4552 83.3097 44.1489 83.116 43.8936C82.9224 43.6384 82.6586 43.4454 82.3569 43.3382C82.0552 43.2309 81.7289 43.2142 81.4179 43.29C81.1068 43.3659 80.8247 43.531 80.6061 43.7651C80.3875 43.9992 80.2419 44.2922 80.1871 44.6079C80.1324 44.9237 80.171 45.2485 80.2981 45.5427C80.4252 45.8369 80.6353 46.0876 80.9026 46.2639C81.1699 46.4402 81.4828 46.5345 81.803 46.5353C82.0292 46.5371 82.2533 46.492 82.4613 46.4027C82.6692 46.3134 82.8563 46.1818 83.0108 46.0163C83.1653 45.8509 83.2838 45.655 83.3589 45.4413C83.434 45.2276 83.464 45.0008 83.4469 44.7749Z" fill="white"/>
<path d="M86.0315 42.5393H86.7084V43.1906H86.7612C86.8924 42.9468 87.0902 42.7453 87.3315 42.6097C87.5728 42.4742 87.8476 42.4101 88.1238 42.4249C88.3519 42.4207 88.5783 42.464 88.7887 42.5522C88.9992 42.6403 89.189 42.7712 89.3461 42.9368C89.5032 43.1024 89.6241 43.2989 89.7013 43.5138C89.7784 43.7287 89.8101 43.9575 89.7942 44.1853V47.0019H89.1172V44.2292C89.1232 44.0749 89.0977 43.9211 89.0423 43.777C88.9869 43.633 88.9027 43.5017 88.7949 43.3913C88.6872 43.2809 88.558 43.1937 88.4154 43.1349C88.2728 43.0762 88.1197 43.0473 87.9656 43.0498C87.7976 43.0473 87.6308 43.0791 87.4754 43.1431C87.32 43.2071 87.1792 43.3021 87.0616 43.4222C86.9441 43.5424 86.8521 43.6853 86.7914 43.8421C86.7307 43.999 86.7024 44.1667 86.7084 44.3349V46.9754H86.0315V42.5393Z" fill="white"/>
<path d="M95.0338 42.5396H95.7107V43.1821H95.7635C95.8888 42.9455 96.0781 42.7491 96.3098 42.6152C96.5414 42.4813 96.8061 42.4155 97.0734 42.4253C97.3614 42.4133 97.6468 42.4839 97.896 42.629C98.1452 42.774 98.3478 42.9873 98.48 43.2438H98.5415C98.6708 42.983 98.874 42.7662 99.1258 42.6206C99.3776 42.475 99.6667 42.4071 99.9569 42.4253C100.179 42.4161 100.401 42.4539 100.607 42.5361C100.814 42.6184 101.001 42.7433 101.156 42.9027C101.311 43.0622 101.431 43.2526 101.507 43.4615C101.584 43.6703 101.616 43.8931 101.601 44.1151V47.0198H100.924V44.3792C100.924 43.4991 100.502 43.1028 99.8426 43.1028C99.6782 43.1008 99.5153 43.1336 99.3644 43.1989C99.2135 43.2642 99.078 43.3606 98.9668 43.4819C98.8556 43.6031 98.7713 43.7465 98.7192 43.9026C98.6671 44.0588 98.6485 44.2242 98.6646 44.3881V47.0286H97.9789V44.2207C97.9902 44.0705 97.9696 43.9198 97.9184 43.7782C97.8673 43.6366 97.7867 43.5075 97.682 43.3994C97.5773 43.2912 97.4509 43.2064 97.3112 43.1507C97.1714 43.0951 97.0214 43.0699 96.8712 43.0766C96.7115 43.0799 96.554 43.1154 96.4084 43.181C96.2627 43.2467 96.1317 43.3409 96.0234 43.4584C95.915 43.576 95.8315 43.7144 95.7778 43.865C95.724 44.0157 95.7012 44.1755 95.7107 44.3352V47.0286H95.0338V42.5396Z" fill="white"/>
<path d="M103.403 44.7838C103.375 44.4863 103.409 44.1862 103.503 43.9026C103.597 43.6189 103.749 43.3578 103.949 43.136C104.149 42.9142 104.393 42.7365 104.665 42.6141C104.937 42.4917 105.232 42.4273 105.531 42.425C105.835 42.4208 106.135 42.4955 106.401 42.642C106.668 42.7886 106.892 43.0019 107.051 43.2611H107.104V42.5393H107.79V46.2096C107.79 46.3416 107.878 46.412 108.018 46.412H108.221V47.0195H107.79C107.702 47.0207 107.615 47.004 107.534 46.9707C107.453 46.9374 107.379 46.8882 107.318 46.8257C107.256 46.7632 107.208 46.6888 107.176 46.6071C107.144 46.5255 107.128 46.4383 107.131 46.3506V46.3065H107.078C106.926 46.566 106.707 46.7793 106.444 46.9235C106.181 47.0677 105.883 47.1373 105.583 47.125C105.283 47.1271 104.985 47.0668 104.709 46.9477C104.433 46.8287 104.185 46.6536 103.98 46.4335C103.775 46.2134 103.618 45.9534 103.519 45.6694C103.419 45.3854 103.38 45.0838 103.403 44.7838ZM107.131 44.7838C107.159 44.5658 107.141 44.3441 107.078 44.1336C107.015 43.923 106.908 43.7282 106.765 43.562C106.621 43.3957 106.444 43.2617 106.245 43.1689C106.046 43.0761 105.829 43.0265 105.61 43.0234C105.256 42.9752 104.896 43.0359 104.577 43.1977C104.258 43.3595 103.997 43.6147 103.826 43.9292C103.656 44.2437 103.586 44.6023 103.624 44.9579C103.663 45.3134 103.809 45.6488 104.043 45.9193C104.276 46.1898 104.587 46.3825 104.933 46.472C105.278 46.5614 105.643 46.5435 105.979 46.4202C106.314 46.2969 106.604 46.0741 106.81 45.7818C107.015 45.4894 107.127 45.1414 107.131 44.7838Z" fill="white"/>
<path d="M110.199 42.5394H110.876V43.1907H110.928C111.062 42.9469 111.261 42.7458 111.504 42.6103C111.747 42.4749 112.022 42.4107 112.3 42.4251C112.527 42.4221 112.753 42.4662 112.962 42.5549C113.171 42.6436 113.36 42.7749 113.516 42.9404C113.672 43.1058 113.793 43.3018 113.869 43.5161C113.946 43.7304 113.977 43.9584 113.961 44.1855V47.002H113.284V44.2293C113.29 44.075 113.265 43.9212 113.21 43.7772C113.154 43.6331 113.07 43.5018 112.962 43.3914C112.854 43.281 112.725 43.1938 112.583 43.1351C112.44 43.0763 112.287 43.0475 112.133 43.05C111.965 43.0475 111.798 43.0792 111.643 43.1432C111.487 43.2073 111.346 43.3022 111.229 43.4224C111.111 43.5426 111.019 43.6854 110.959 43.8423C110.898 43.9991 110.87 44.1669 110.876 44.335V46.9756H110.199V42.5394Z" fill="white"/>
<path d="M115.764 44.7838C115.736 44.4856 115.77 44.1847 115.864 43.9004C115.959 43.6161 116.111 43.3548 116.312 43.1328C116.513 42.9109 116.758 42.7334 117.032 42.6115C117.305 42.4896 117.601 42.4261 117.9 42.425C118.204 42.4208 118.504 42.4955 118.771 42.642C119.037 42.7886 119.261 43.0019 119.421 43.2611H119.474V42.5393H120.159V46.2096C120.158 46.2381 120.163 46.2667 120.173 46.2932C120.184 46.3197 120.2 46.3435 120.221 46.3628C120.242 46.3822 120.268 46.3966 120.295 46.4052C120.322 46.4137 120.351 46.416 120.379 46.412H120.59V47.0195H120.151C120.064 47.0196 119.978 47.002 119.897 46.9682C119.817 46.9343 119.745 46.8848 119.684 46.8225C119.624 46.7601 119.576 46.6863 119.544 46.6052C119.513 46.5241 119.498 46.4376 119.5 46.3506V46.3065H119.447C119.294 46.564 119.074 46.7757 118.811 46.9196C118.549 47.0635 118.252 47.1345 117.953 47.125C117.651 47.1284 117.353 47.069 117.076 46.9505C116.799 46.8321 116.549 46.6572 116.343 46.437C116.138 46.2167 115.98 45.9559 115.88 45.6713C115.78 45.3867 115.74 45.0845 115.764 44.7838ZM119.5 44.7838C119.529 44.5658 119.511 44.3441 119.448 44.1336C119.385 43.923 119.278 43.7282 119.134 43.562C118.99 43.3957 118.813 43.2617 118.614 43.1689C118.415 43.0761 118.199 43.0265 117.979 43.0234C117.625 42.9752 117.265 43.0359 116.946 43.1977C116.628 43.3595 116.366 43.6147 116.196 43.9292C116.026 44.2436 115.955 44.6023 115.994 44.9579C116.032 45.3134 116.178 45.6488 116.412 45.9193C116.646 46.1898 116.956 46.3825 117.302 46.472C117.648 46.5614 118.013 46.5435 118.348 46.4202C118.683 46.2969 118.973 46.0741 119.179 45.7818C119.385 45.4894 119.497 45.1414 119.5 44.7838Z" fill="white"/>
<path d="M123.324 48.3664H125.267C125.733 48.3664 125.935 48.1375 125.935 47.6534V46.2891H125.882C125.73 46.5566 125.506 46.7764 125.236 46.9241C124.966 47.0717 124.66 47.1413 124.353 47.1252C124.054 47.1241 123.758 47.0606 123.484 46.9387C123.211 46.8168 122.966 46.6393 122.765 46.4174C122.564 46.1954 122.412 45.934 122.317 45.6498C122.223 45.3655 122.188 45.0646 122.216 44.7664C122.196 44.4662 122.237 44.1651 122.338 43.8817C122.439 43.5982 122.597 43.3387 122.802 43.119C123.008 42.8994 123.256 42.7244 123.532 42.605C123.808 42.4856 124.105 42.4244 124.405 42.4251C124.705 42.4221 125 42.4957 125.263 42.639C125.526 42.7822 125.749 42.9903 125.909 43.2437H125.962V42.5395H126.612V47.7237C126.612 48.6039 126.067 48.9913 125.258 48.9913H123.324V48.3664ZM125.962 44.7664C125.919 44.4744 125.795 44.2006 125.602 43.9777C125.409 43.7548 125.156 43.5921 124.873 43.5088C124.591 43.4255 124.29 43.4253 124.007 43.508C123.725 43.5907 123.471 43.7528 123.278 43.9754C123.085 44.1979 122.959 44.4713 122.917 44.7631C122.874 45.055 122.916 45.3529 123.037 45.6216C123.159 45.8903 123.355 46.1185 123.602 46.279C123.849 46.4394 124.137 46.5254 124.432 46.5267C124.651 46.5221 124.867 46.4716 125.066 46.3785C125.265 46.2853 125.442 46.1514 125.586 45.9856C125.73 45.8199 125.838 45.6257 125.903 45.4158C125.967 45.2058 125.987 44.9846 125.962 44.7664Z" fill="white"/>
<path d="M128.414 44.7928C128.393 44.4925 128.433 44.191 128.532 43.9068C128.631 43.6226 128.787 43.3616 128.99 43.1398C129.193 42.9181 129.44 42.7404 129.714 42.6174C129.989 42.4945 130.285 42.4291 130.586 42.4251C130.882 42.4157 131.176 42.47 131.45 42.5846C131.723 42.6992 131.968 42.8712 132.169 43.0891C132.37 43.307 132.522 43.5657 132.614 43.8475C132.707 44.1292 132.737 44.4276 132.704 44.7223V44.9688H129.109C129.089 45.1752 129.115 45.3835 129.184 45.579C129.252 45.7746 129.363 45.9529 129.508 46.1012C129.653 46.2496 129.828 46.3645 130.022 46.438C130.216 46.5114 130.423 46.5417 130.63 46.5267C130.934 46.543 131.235 46.4539 131.481 46.2744C131.728 46.0949 131.905 45.8358 131.984 45.5408L132.643 45.6994C132.514 46.1292 132.244 46.5033 131.878 46.7618C131.511 47.0203 131.069 47.1482 130.621 47.1252C130.317 47.1364 130.015 47.0828 129.734 46.9679C129.453 46.8529 129.199 46.6793 128.991 46.4586C128.782 46.2379 128.622 45.9753 128.523 45.688C128.424 45.4007 128.387 45.0955 128.414 44.7928ZM132.01 44.4143C132.014 44.2284 131.979 44.0437 131.909 43.8718C131.838 43.6998 131.732 43.5445 131.598 43.4155C131.464 43.2865 131.305 43.1866 131.131 43.1222C130.957 43.0578 130.771 43.0302 130.586 43.0412C130.212 43.0362 129.851 43.1764 129.579 43.4325C129.307 43.6886 129.145 44.0408 129.126 44.4143H132.01Z" fill="white"/>
<path d="M134.595 42.5396H135.272V43.1821H135.324C135.449 42.9448 135.638 42.7477 135.87 42.6137C136.102 42.4797 136.367 42.4145 136.634 42.4253C136.922 42.4133 137.208 42.4839 137.457 42.629C137.706 42.774 137.909 42.9873 138.041 43.2438H138.102C138.232 42.983 138.435 42.7662 138.687 42.6206C138.938 42.475 139.228 42.4071 139.518 42.4253C139.74 42.4161 139.961 42.4539 140.168 42.5361C140.374 42.6184 140.561 42.7433 140.716 42.9027C140.872 43.0622 140.991 43.2526 141.068 43.4615C141.145 43.6703 141.177 43.8931 141.162 44.1151V47.0198H140.485V44.3792C140.485 43.4991 140.063 43.1028 139.395 43.1028C139.231 43.1021 139.068 43.1359 138.918 43.2017C138.768 43.2674 138.633 43.3639 138.522 43.4849C138.411 43.6058 138.327 43.7486 138.274 43.9041C138.221 44.0596 138.202 44.2245 138.217 44.3881V47.0286H137.54V44.2207C137.55 44.0708 137.528 43.9207 137.476 43.7797C137.425 43.6387 137.344 43.5102 137.24 43.4024C137.135 43.2945 137.009 43.2099 136.87 43.1537C136.731 43.0976 136.582 43.0713 136.432 43.0766C136.272 43.0799 136.115 43.1154 135.969 43.181C135.823 43.2467 135.693 43.3409 135.584 43.4584C135.476 43.576 135.392 43.7144 135.339 43.865C135.285 44.0157 135.262 44.1755 135.272 44.3352V47.0286H134.595V42.5396Z" fill="white"/>
<path d="M142.964 44.7928C142.942 44.4933 142.982 44.1926 143.08 43.909C143.179 43.6253 143.334 43.3647 143.536 43.1431C143.739 42.9215 143.984 42.7435 144.258 42.6201C144.531 42.4966 144.827 42.4304 145.127 42.4252C145.423 42.4145 145.719 42.4678 145.993 42.5818C146.267 42.6958 146.514 42.8677 146.716 43.0857C146.918 43.3038 147.07 43.563 147.163 43.8454C147.256 44.1278 147.287 44.4269 147.254 44.7223V44.9688H143.658C143.639 45.1753 143.664 45.3835 143.733 45.5791C143.802 45.7747 143.913 45.953 144.058 46.1013C144.202 46.2496 144.378 46.3645 144.572 46.438C144.765 46.5115 144.973 46.5418 145.179 46.5268C145.483 46.5414 145.783 46.4516 146.03 46.2723C146.276 46.0931 146.453 45.835 146.533 45.5409L147.192 45.6994C147.063 46.1293 146.794 46.5034 146.427 46.7619C146.061 47.0203 145.618 47.1482 145.17 47.1252C144.867 47.1365 144.565 47.0829 144.284 46.9679C144.002 46.853 143.749 46.6794 143.54 46.4586C143.331 46.2379 143.172 45.9753 143.073 45.6881C142.973 45.4008 142.936 45.0956 142.964 44.7928ZM146.56 44.4144C146.562 44.2281 146.527 44.0431 146.455 43.8712C146.383 43.6992 146.276 43.544 146.142 43.4152C146.007 43.2863 145.848 43.1866 145.673 43.1223C145.498 43.0579 145.312 43.0303 145.127 43.0413C144.754 43.0385 144.396 43.1799 144.126 43.4358C143.855 43.6917 143.694 44.0424 143.676 44.4144H146.56Z" fill="white"/>
<path d="M149.144 42.5393H149.821V43.1906H149.874C150.005 42.9468 150.203 42.7453 150.444 42.6097C150.685 42.4742 150.96 42.4101 151.236 42.4249C151.464 42.4221 151.69 42.4661 151.9 42.5547C152.11 42.6433 152.299 42.7745 152.456 42.9398C152.613 43.1051 152.734 43.301 152.811 43.5153C152.889 43.7296 152.921 43.9578 152.907 44.1853V47.0019H152.23V44.2292C152.236 44.0749 152.21 43.9211 152.155 43.777C152.1 43.633 152.015 43.5017 151.908 43.3913C151.8 43.2809 151.671 43.1937 151.528 43.1349C151.385 43.0762 151.232 43.0473 151.078 43.0498C150.91 43.0473 150.743 43.0791 150.588 43.1431C150.433 43.2071 150.292 43.3021 150.174 43.4222C150.057 43.5424 149.965 43.6853 149.904 43.8421C149.843 43.999 149.815 44.1667 149.821 44.3349V46.9754H149.144V42.5393Z" fill="white"/>
<path d="M155.465 45.7433V43.1027H154.586V42.5219H155.465V41.228H156.098V42.5219H157.478V43.1027H156.098V45.7433C156.098 46.2274 156.3 46.4299 156.775 46.4299H157.417V47.0285H156.775C156.01 47.0197 155.465 46.6499 155.465 45.7433Z" fill="white"/>
<path d="M162.199 44.7752C162.19 44.4692 162.242 44.1644 162.353 43.8791C162.463 43.5937 162.63 43.3336 162.844 43.1143C163.057 42.895 163.312 42.7208 163.594 42.6024C163.876 42.484 164.179 42.4238 164.485 42.4251C164.96 42.4099 165.426 42.5592 165.804 42.8478C166.182 43.1364 166.449 43.5466 166.56 44.0093L165.892 44.1679C165.831 43.8464 165.658 43.5571 165.403 43.3522C165.148 43.1472 164.829 43.0402 164.503 43.05C164.1 43.1264 163.737 43.3409 163.476 43.6567C163.215 43.9724 163.072 44.3695 163.072 44.7795C163.072 45.1894 163.215 45.5867 163.476 45.9025C163.737 46.2182 164.1 46.4327 164.503 46.5091C164.829 46.519 165.148 46.4117 165.403 46.2067C165.658 46.0018 165.831 45.7127 165.892 45.3912L166.56 45.5408C166.447 46.0043 166.178 46.4148 165.799 46.7034C165.419 46.9919 164.952 47.1408 164.476 47.1252C164.17 47.1291 163.866 47.0705 163.584 46.9528C163.301 46.8352 163.045 46.661 162.832 46.441C162.619 46.221 162.453 45.9598 162.344 45.6734C162.235 45.387 162.186 45.0813 162.199 44.7752Z" fill="white"/>
<path d="M168.16 44.7749C168.162 44.3118 168.3 43.8597 168.559 43.4757C168.817 43.0916 169.184 42.7928 169.611 42.6172C170.039 42.4416 170.51 42.3971 170.963 42.4891C171.416 42.5812 171.832 42.8058 172.158 43.1344C172.484 43.4631 172.705 43.8812 172.793 44.3357C172.882 44.7902 172.834 45.2606 172.655 45.6878C172.477 46.1149 172.176 46.4795 171.79 46.7353C171.405 46.9912 170.952 47.1267 170.489 47.1249C170.18 47.131 169.873 47.0744 169.587 46.9582C169.3 46.842 169.04 46.6688 168.822 46.4491C168.605 46.2294 168.434 45.9678 168.32 45.68C168.206 45.3923 168.151 45.0843 168.16 44.7749ZM172.125 44.7749C172.101 44.4575 171.985 44.1539 171.791 43.9014C171.598 43.6488 171.335 43.4582 171.035 43.353C170.735 43.2477 170.41 43.2323 170.102 43.3087C169.793 43.3851 169.513 43.5501 169.297 43.7832C169.08 44.0163 168.936 44.3075 168.882 44.6213C168.829 44.935 168.868 45.2578 168.994 45.5498C169.121 45.8418 169.329 46.0906 169.595 46.2656C169.861 46.4406 170.171 46.5344 170.489 46.5353C170.712 46.5324 170.932 46.4837 171.136 46.3922C171.339 46.3006 171.521 46.1681 171.671 46.003C171.821 45.8379 171.936 45.6437 172.008 45.4325C172.08 45.2212 172.108 44.9974 172.089 44.7749H172.125Z" fill="white"/>
<path d="M174.674 42.5394H175.36V43.1819H175.413C175.536 42.946 175.724 42.7498 175.954 42.6159C176.184 42.482 176.448 42.416 176.714 42.4251C177.002 42.4131 177.287 42.4838 177.536 42.6288C177.785 42.7738 177.988 42.9871 178.12 43.2436H178.182C178.313 42.9829 178.518 42.7663 178.772 42.6209C179.025 42.4754 179.315 42.4074 179.606 42.4251C179.827 42.4172 180.048 42.4559 180.253 42.5388C180.459 42.6216 180.645 42.7467 180.799 42.906C180.953 43.0653 181.072 43.2552 181.148 43.4635C181.224 43.6717 181.256 43.8937 181.241 44.115V47.0197H180.564V44.3791C180.564 43.4989 180.142 43.1027 179.483 43.1027C179.319 43.102 179.157 43.1357 179.006 43.2015C178.856 43.2673 178.721 43.3638 178.61 43.4847C178.499 43.6057 178.415 43.7485 178.362 43.904C178.31 44.0595 178.29 44.2244 178.305 44.3879V47.0285H177.628V44.2205C177.638 44.0707 177.616 43.9205 177.565 43.7796C177.513 43.6386 177.432 43.51 177.328 43.4022C177.224 43.2944 177.098 43.2097 176.959 43.1536C176.819 43.0975 176.67 43.0712 176.52 43.0764C176.36 43.0785 176.202 43.1131 176.056 43.1783C175.91 43.2435 175.778 43.3379 175.67 43.4557C175.561 43.5735 175.477 43.7122 175.424 43.8634C175.371 44.0145 175.349 44.1751 175.36 44.335V47.0285H174.674V42.5394Z" fill="white"/>
<path d="M183.386 42.5395H184.046V43.2437H184.098C184.259 42.9903 184.481 42.7822 184.744 42.639C185.007 42.4957 185.302 42.4221 185.602 42.4251C185.902 42.4243 186.199 42.4855 186.474 42.605C186.75 42.7245 186.997 42.8997 187.202 43.1194C187.407 43.3392 187.564 43.5989 187.664 43.8823C187.763 44.1657 187.804 44.4667 187.782 44.7664C187.811 45.0642 187.778 45.3649 187.685 45.6491C187.591 45.9334 187.44 46.1948 187.239 46.4169C187.039 46.639 186.794 46.8167 186.522 46.9387C186.249 47.0607 185.953 47.1242 185.654 47.1252C185.347 47.1434 185.04 47.0747 184.77 46.9269C184.499 46.779 184.276 46.558 184.125 46.2891H184.072V48.9913H183.386V42.5395ZM187.087 44.7664C187.045 44.4737 186.92 44.1994 186.726 43.9762C186.532 43.753 186.278 43.5902 185.995 43.5075C185.711 43.4248 185.41 43.4255 185.127 43.5097C184.844 43.5938 184.591 43.7578 184.398 43.982C184.206 44.2062 184.082 44.4812 184.041 44.7741C184 45.067 184.045 45.3653 184.169 45.6337C184.293 45.902 184.491 46.129 184.741 46.2873C184.99 46.4457 185.28 46.5288 185.575 46.5267C185.794 46.521 186.008 46.4697 186.206 46.3759C186.403 46.2821 186.579 46.1478 186.721 45.982C186.863 45.8162 186.97 45.6223 187.033 45.413C187.096 45.2036 187.114 44.9834 187.087 44.7664Z" fill="white"/>
<path d="M189.329 44.7838C189.301 44.4863 189.335 44.1862 189.429 43.9026C189.523 43.6189 189.675 43.3578 189.875 43.136C190.075 42.9142 190.319 42.7365 190.591 42.6141C190.863 42.4917 191.158 42.4273 191.457 42.425C191.761 42.4208 192.061 42.4955 192.327 42.642C192.594 42.7886 192.818 43.0019 192.978 43.2611H193.03V42.5393H193.716V46.2096C193.716 46.3416 193.804 46.412 193.945 46.412H194.147V47.0195H193.707C193.62 47.0196 193.534 47.002 193.454 46.9682C193.374 46.9343 193.301 46.8848 193.241 46.8225C193.18 46.7601 193.133 46.6863 193.101 46.6052C193.069 46.5241 193.054 46.4376 193.057 46.3506V46.3065H193.004C192.852 46.566 192.633 46.7793 192.37 46.9235C192.107 47.0677 191.809 47.1373 191.509 47.125C191.209 47.1271 190.911 47.0668 190.635 46.9477C190.359 46.8287 190.111 46.6536 189.906 46.4335C189.701 46.2134 189.544 45.9534 189.445 45.6694C189.345 45.3854 189.306 45.0838 189.329 44.7838ZM193.057 44.7838C193.085 44.5658 193.067 44.3441 193.004 44.1336C192.941 43.923 192.834 43.7282 192.691 43.562C192.547 43.3957 192.37 43.2617 192.171 43.1689C191.972 43.0761 191.755 43.0265 191.536 43.0234C191.182 42.9752 190.822 43.0359 190.503 43.1977C190.184 43.3595 189.923 43.6147 189.752 43.9292C189.582 44.2437 189.512 44.6023 189.55 44.9579C189.589 45.3134 189.735 45.6488 189.969 45.9193C190.202 46.1898 190.513 46.3825 190.859 46.472C191.204 46.5614 191.569 46.5435 191.905 46.4202C192.24 46.2969 192.53 46.0741 192.736 45.7818C192.941 45.4894 193.053 45.1414 193.057 44.7838Z" fill="white"/>
<path d="M196.125 42.5395H196.802V43.1908H196.854C196.987 42.9484 197.185 42.7481 197.426 42.6127C197.667 42.4774 197.941 42.4124 198.217 42.4251C198.445 42.4209 198.672 42.4642 198.882 42.5524C199.092 42.6405 199.282 42.7714 199.439 42.937C199.596 43.1026 199.717 43.2991 199.795 43.514C199.872 43.7289 199.903 43.9577 199.887 44.1855V47.0021H199.211V44.2294C199.217 44.0751 199.191 43.9213 199.136 43.7772C199.08 43.6332 198.996 43.5019 198.888 43.3915C198.78 43.2811 198.651 43.1939 198.509 43.1351C198.366 43.0764 198.213 43.0475 198.059 43.05C197.891 43.0476 197.724 43.0793 197.569 43.1433C197.413 43.2073 197.272 43.3023 197.155 43.4225C197.037 43.5426 196.945 43.6855 196.885 43.8423C196.824 43.9992 196.796 44.167 196.802 44.3351V46.9757H196.125V42.5395Z" fill="white"/>
<path d="M201.778 48.3751H202.279C202.446 48.3907 202.613 48.346 202.75 48.2491C202.887 48.1523 202.985 48.0096 203.026 47.8469L203.342 47.0195H203.158L201.523 42.5393H202.279L203.58 46.3594H203.633L205.022 42.5393H205.786L203.606 48.155C203.52 48.4375 203.337 48.6804 203.089 48.8414C202.842 49.0023 202.545 49.0709 202.252 49.0352H201.778V48.3751Z" fill="white"/>
<path d="M210.156 35.2603H209.575V42.0465H210.156V35.2603Z" fill="white"/>
<path d="M213.259 38.9484V38.3674H206.481V38.9484H213.259Z" fill="white"/>
</g>
<defs>
<clipPath id="clip0_17_40">
<rect width="247" height="49" fill="white"/>
</clipPath>
</defs>
</svg>
