<svg width="261" height="23" viewBox="0 0 261 23" fill="none" xmlns="http://www.w3.org/2000/svg">
<g clip-path="url(#clip0_46_277)">
<path d="M0 11.5248C0 7.76581 2.3308 5.08908 5.74492 5.08908C6.56816 5.06967 7.38177 5.27051 8.1027 5.6711C8.82362 6.0717 9.42604 6.65769 9.84844 7.36926H9.98796V5.39476H11.8509V15.3994C11.8465 15.4787 11.8596 15.558 11.8893 15.6316C11.919 15.7051 11.9645 15.7712 12.0226 15.8249C12.0807 15.8786 12.1499 15.9187 12.2252 15.9423C12.3006 15.9659 12.3802 15.9723 12.4583 15.9612H13.0164V17.6135H11.8345C11.5991 17.6181 11.3652 17.5745 11.147 17.4854C10.9288 17.3963 10.7308 17.2635 10.5651 17.0951C10.3993 16.9267 10.2693 16.7262 10.1828 16.5058C10.0963 16.2853 10.0551 16.0495 10.0618 15.8125V15.6968H9.97975C9.55997 16.3973 8.96226 16.9725 8.2482 17.3632C7.53414 17.7538 6.72953 17.9457 5.91727 17.9192C2.44569 17.9027 0 15.2507 0 11.5248ZM10.1193 11.5248C10.1193 8.50108 8.24806 6.76617 6.01575 6.76617C3.78344 6.76617 1.91223 8.74067 1.91223 11.5248C1.91223 14.3089 3.70957 16.2256 6.01575 16.2256C8.55172 16.2421 10.1193 14.1024 10.1193 11.5413V11.5248Z" fill="black"/>
<path d="M22.6432 5.39476H24.4898V7.17924H24.6703C25.0263 6.51287 25.5635 5.96237 26.219 5.5922C26.8745 5.22203 27.6212 5.04752 28.3717 5.08908C31.1949 5.08908 32.902 7.22881 32.902 9.93032V17.597H31.0554V10.046C31.0734 9.62541 31.0056 9.20558 30.8563 8.81239C30.7069 8.41921 30.479 8.061 30.1868 7.75987C29.8946 7.45874 29.5442 7.22108 29.1572 7.06154C28.7702 6.902 28.3548 6.82397 27.9367 6.83226C27.4823 6.82645 27.0314 6.91337 26.6112 7.08778C26.191 7.26219 25.8103 7.52047 25.492 7.84705C25.1738 8.17362 24.9245 8.56172 24.7593 8.98792C24.5941 9.41413 24.5164 9.8696 24.5308 10.3269V17.597H22.6842L22.6432 5.39476Z" fill="black"/>
<path d="M41.9626 11.5C41.9691 10.2413 42.3459 9.01271 43.0454 7.96941C43.745 6.92612 44.736 6.11486 45.8933 5.63807C47.0505 5.16127 48.3222 5.04032 49.5477 5.29049C50.7731 5.54065 51.8975 6.15071 52.7789 7.04364C53.6602 7.93657 54.2589 9.07235 54.4995 10.3076C54.7401 11.5428 54.6117 12.8221 54.1306 13.9839C53.6494 15.1457 52.8371 16.138 51.7962 16.8354C50.7553 17.5329 49.5324 17.9043 48.282 17.9026C47.444 17.9197 46.6112 17.7654 45.8341 17.4492C45.0571 17.1329 44.3518 16.6613 43.761 16.0627C43.1703 15.4642 42.7063 14.7512 42.3972 13.9669C42.088 13.1827 41.9402 12.3434 41.9626 11.5ZM52.7302 11.5C52.767 10.8902 52.6795 10.2793 52.4731 9.70477C52.2666 9.13029 51.9455 8.60441 51.5296 8.1595C51.1137 7.71459 50.6118 7.36006 50.0547 7.11773C49.4976 6.87539 48.8971 6.75038 48.2902 6.75038C47.6833 6.75038 47.0828 6.87539 46.5257 7.11773C45.9686 7.36006 45.4666 7.71459 45.0507 8.1595C44.6348 8.60441 44.3138 9.13029 44.1073 9.70477C43.9008 10.2793 43.8133 10.8902 43.8502 11.5C43.8133 12.1098 43.9008 12.7207 44.1073 13.2952C44.3138 13.8697 44.6348 14.3956 45.0507 14.8405C45.4666 15.2854 45.9686 15.6399 46.5257 15.8822C47.0828 16.1246 47.6833 16.2496 48.2902 16.2496C48.8971 16.2496 49.4976 16.1246 50.0547 15.8822C50.6118 15.6399 51.1137 15.2854 51.5296 14.8405C51.9455 14.3956 52.2666 13.8697 52.4731 13.2952C52.6795 12.7207 52.767 12.1098 52.7302 11.5Z" fill="black"/>
<path d="M65.0735 14.1272V6.97271H62.7838V5.39477H65.1884V1.85059H66.9119V5.39477H70.6297V6.97271H66.8955V14.1024C66.8955 15.416 67.4372 15.986 68.7175 15.986H70.4656V17.6383H68.7421C66.5262 17.597 65.0735 16.5891 65.0735 14.1272Z" fill="black"/>
<path d="M80.0924 0H81.939V7.17924H82.1195C82.4867 6.51153 83.0332 5.96137 83.6965 5.59173C84.3598 5.22209 85.1131 5.04789 85.8702 5.08908C88.6934 5.08908 90.4415 7.22881 90.4415 9.93032V17.597H88.5949V10.046C88.6074 9.62053 88.5333 9.19701 88.3773 8.80142C88.2213 8.40583 87.9866 8.04652 87.6876 7.74555C87.3886 7.44459 87.0317 7.20832 86.6387 7.05127C86.2457 6.89421 85.825 6.81968 85.4024 6.83226C84.9555 6.81788 84.5103 6.89395 84.0932 7.05596C83.6761 7.21797 83.2956 7.46263 82.9741 7.77542C82.6527 8.08822 82.3969 8.46279 82.2219 8.87693C82.0469 9.29108 81.9563 9.73637 81.9554 10.1864V17.6218H80.1088L80.0924 0Z" fill="black"/>
<path d="M99.502 11.5413C99.502 7.65014 102.161 5.08908 105.378 5.08908C109.039 5.08908 111.123 7.67493 111.123 11.3348V12.0122H101.39C101.39 14.7385 103.031 16.2669 105.493 16.2669C106.323 16.3173 107.144 16.0788 107.82 15.5913C108.495 15.1039 108.984 14.3973 109.203 13.5902L110.992 14.0115C110.642 15.182 109.913 16.2009 108.921 16.906C107.929 17.6111 106.731 17.962 105.518 17.9027C101.816 17.9027 99.502 15.3003 99.502 11.5413ZM109.244 10.5169C109.255 10.0089 109.161 9.50414 108.969 9.03429C108.777 8.56443 108.491 8.13965 108.127 7.78664C107.764 7.43362 107.333 7.16 106.86 6.98296C106.387 6.80593 105.882 6.7293 105.378 6.7579C104.365 6.74626 103.387 7.13217 102.652 7.83384C101.917 8.53552 101.482 9.49784 101.439 10.5169H109.244Z" fill="black"/>
<path d="M120.471 5.39476H122.285V7.43535H122.432C122.683 6.75785 123.13 6.17179 123.715 5.75336C124.3 5.33492 124.997 5.10347 125.715 5.08908H126.536V6.94792H125.444C123.229 6.94792 122.318 8.75718 122.318 11.0787V17.597H120.479L120.471 5.39476Z" fill="black"/>
<path d="M135.629 0H137.468V10.1121H140.677L145.445 17.6218H143.254L139.667 11.8387H137.468V17.6218H135.629V0Z" fill="black"/>
<path d="M152.7 11.5C152.707 10.2413 153.083 9.01271 153.783 7.96941C154.482 6.92612 155.473 6.11486 156.631 5.63807C157.788 5.16127 159.06 5.04032 160.285 5.29049C161.511 5.54065 162.635 6.15071 163.516 7.04364C164.398 7.93657 164.996 9.07235 165.237 10.3076C165.478 11.5428 165.349 12.8221 164.868 13.9839C164.387 15.1457 163.575 16.138 162.534 16.8354C161.493 17.5329 160.27 17.9043 159.019 17.9026C158.181 17.9197 157.349 17.7654 156.572 17.4492C155.795 17.1329 155.089 16.6613 154.499 16.0627C153.908 15.4642 153.444 14.7512 153.135 13.9669C152.826 13.1827 152.678 12.3434 152.7 11.5ZM163.468 11.5C163.505 10.8902 163.417 10.2793 163.211 9.70477C163.004 9.13029 162.683 8.60441 162.267 8.1595C161.851 7.71459 161.349 7.36006 160.792 7.11773C160.235 6.87539 159.635 6.75038 159.028 6.75038C158.421 6.75038 157.82 6.87539 157.263 7.11773C156.706 7.36006 156.204 7.71459 155.788 8.1595C155.372 8.60441 155.051 9.13029 154.845 9.70477C154.638 10.2793 154.551 10.8902 154.588 11.5C154.551 12.1098 154.638 12.7207 154.845 13.2952C155.051 13.8697 155.372 14.3956 155.788 14.8405C156.204 15.2854 156.706 15.6399 157.263 15.8822C157.82 16.1246 158.421 16.2496 159.028 16.2496C159.635 16.2496 160.235 16.1246 160.792 15.8822C161.349 15.6399 161.851 15.2854 162.267 14.8405C162.683 14.3956 163.004 13.8697 163.211 13.2952C163.417 12.7207 163.505 12.1098 163.468 11.5Z" fill="black"/>
<path d="M174.678 5.39474H176.5V7.17922H176.64C176.998 6.51285 177.537 5.9626 178.194 5.59256C178.85 5.22251 179.598 5.04791 180.35 5.08907C183.173 5.08907 184.872 7.22879 184.872 9.9303V17.597H183.066V10.046C183.083 9.62499 183.014 9.20498 182.864 8.81177C182.713 8.41856 182.485 8.06045 182.192 7.75945C181.899 7.45845 181.548 7.22093 181.161 7.06147C180.773 6.90202 180.358 6.82402 179.939 6.83224C179.482 6.8219 179.027 6.90548 178.603 7.07787C178.179 7.25025 177.795 7.50784 177.473 7.83488C177.151 8.16193 176.899 8.55158 176.732 8.98003C176.564 9.40849 176.486 9.86676 176.5 10.3269V17.597H174.662L174.678 5.39474Z" fill="black"/>
<path d="M194.219 15.3251L201.606 7.11314V6.97269H194.425V5.39474H203.337V7.67492L195.951 15.8868V16.0273H203.452V17.597H194.219V15.3251Z" fill="black"/>
<path d="M212.086 11.5413C212.086 7.65014 214.745 5.08908 217.962 5.08908C221.623 5.08908 223.707 7.67493 223.707 11.3348V12.0122H213.974C213.974 14.7385 215.615 16.2669 218.077 16.2669C218.899 16.3072 219.71 16.0638 220.375 15.5771C221.041 15.0903 221.522 14.3893 221.738 13.5902L223.535 14.0115C223.183 15.1826 222.452 16.2018 221.459 16.9068C220.466 17.6119 219.267 17.9624 218.053 17.9027C214.4 17.9027 212.086 15.3003 212.086 11.5413ZM221.836 10.5169C221.845 10.0089 221.749 9.50448 221.556 9.03517C221.362 8.56587 221.075 8.14169 220.712 7.78905C220.348 7.43642 219.917 7.16288 219.444 6.98548C218.971 6.80807 218.466 6.73061 217.962 6.7579C216.949 6.74627 215.971 7.13217 215.236 7.83384C214.501 8.53552 214.066 9.49784 214.023 10.5169H221.836Z" fill="black"/>
<path d="M233.055 5.39477H234.828V7.32796H234.967C235.399 6.62849 236.005 6.05469 236.724 5.66343C237.444 5.27218 238.253 5.07704 239.071 5.09736C242.526 5.09736 244.996 7.74929 244.996 11.4835C244.996 15.2177 242.641 17.9109 239.21 17.9109C238.379 17.954 237.551 17.7646 236.82 17.3636C236.088 16.9627 235.481 16.3658 235.066 15.639H234.926V23.0248H233.08L233.055 5.39477ZM243.084 11.4587C243.084 8.59197 241.262 6.76618 238.931 6.76618C236.412 6.76618 234.828 8.89764 234.828 11.4587C234.828 14.4659 236.691 16.2008 238.981 16.2008C241.27 16.2008 243.084 14.2676 243.084 11.4587Z" fill="black"/>
<path d="M255.427 14.1272V6.97271H253.146V5.39477H255.542V1.85059H257.266V5.39477H261.033V6.97271H257.299V14.1024C257.299 15.416 257.84 15.986 259.121 15.986H260.869V17.6383H259.145C256.929 17.597 255.427 16.5891 255.427 14.1272Z" fill="black"/>
<path d="M143.385 4.90731C143.107 4.90897 142.836 4.99365 142.606 5.15061C142.376 5.30757 142.197 5.52976 142.093 5.789C141.988 6.04824 141.963 6.33286 142.019 6.60679C142.076 6.88072 142.212 7.13163 142.41 7.32769C142.608 7.52376 142.86 7.65617 143.133 7.70814C143.406 7.7601 143.688 7.72928 143.944 7.61958C144.199 7.50988 144.417 7.32625 144.569 7.09195C144.721 6.85765 144.8 6.58324 144.797 6.3035C144.801 6.11676 144.768 5.93104 144.698 5.75788C144.629 5.58472 144.524 5.4278 144.392 5.29688C144.26 5.16596 144.102 5.06382 143.929 4.99681C143.755 4.92979 143.57 4.89933 143.385 4.90731Z" fill="#E9521D"/>
</g>
<defs>
<clipPath id="clip0_46_277">
<rect width="261" height="23" fill="white"/>
</clipPath>
</defs>
</svg>
