<svg width="260" height="23" viewBox="0 0 260 23" fill="none" xmlns="http://www.w3.org/2000/svg">
<g clip-path="url(#clip0_3_22)">
<path d="M0.0163574 11.5248C0.0163574 7.76581 2.33822 5.08908 5.78015 5.08908C6.60023 5.06967 7.41073 5.27051 8.12889 5.6711C8.84705 6.0717 9.44716 6.65769 9.86794 7.36925H10.0151V5.39476H11.871V15.3994C11.8653 15.4783 11.8771 15.5575 11.9057 15.6311C11.9343 15.7047 11.9789 15.7709 12.0362 15.8248C12.0934 15.8787 12.1619 15.919 12.2366 15.9426C12.3113 15.9662 12.3903 15.9725 12.4678 15.9612H13.0319V17.6135H11.8464C11.6119 17.6181 11.3789 17.5745 11.1615 17.4854C10.9441 17.3963 10.7469 17.2635 10.5818 17.0951C10.4167 16.9267 10.2872 16.7262 10.201 16.5058C10.1148 16.2853 10.0738 16.0494 10.0805 15.8125V15.6968H9.94152C9.52326 16.3942 8.92851 16.9663 8.21859 17.354C7.50867 17.7417 6.70927 17.9311 5.90278 17.9027C2.46903 17.9027 0.0163574 15.2507 0.0163574 11.5248ZM10.0969 11.5248C10.0969 8.50108 8.241 6.76617 6.00906 6.76617C3.77713 6.76617 1.92127 8.74067 1.92127 11.5248C1.92127 14.3089 3.71172 16.2256 6.00906 16.2256C8.52715 16.2421 10.0805 14.1024 10.0805 11.5413L10.0969 11.5248Z" fill="white"/>
<path d="M22.5646 5.39474H24.3959V7.17922H24.5431C24.8998 6.51285 25.4365 5.9626 26.0908 5.59256C26.745 5.22251 27.4898 5.04791 28.2384 5.08907C31.0427 5.08907 32.7432 7.22879 32.7432 9.9303V17.597H30.9037V10.046C30.9203 9.6271 30.8525 9.20919 30.7042 8.81768C30.556 8.42616 30.3305 8.06921 30.0414 7.76857C29.7523 7.46793 29.4056 7.22989 29.0226 7.06892C28.6396 6.90794 28.2281 6.82742 27.8133 6.83224C27.3606 6.82643 26.9114 6.91335 26.4929 7.08776C26.0743 7.26217 25.6951 7.52046 25.378 7.84703C25.0609 8.17361 24.8126 8.5617 24.648 8.98791C24.4835 9.41411 24.406 9.86959 24.4204 10.3269V17.597H22.5646V5.39474Z" fill="white"/>
<path d="M41.8018 11.5C41.8082 10.2413 42.1836 9.01271 42.8805 7.96941C43.5774 6.92612 44.5646 6.11486 45.7174 5.63807C46.8702 5.16127 48.137 5.04032 49.3578 5.29049C50.5786 5.54065 51.6987 6.15071 52.5766 7.04364C53.4546 7.93657 54.051 9.07235 54.2907 10.3076C54.5303 11.5428 54.4024 12.8221 53.9231 13.9839C53.4439 15.1457 52.6347 16.138 51.5977 16.8354C50.5608 17.5329 49.3426 17.9043 48.097 17.9026C47.2622 17.9197 46.4326 17.7654 45.6585 17.4492C44.8844 17.1329 44.1819 16.6613 43.5934 16.0627C43.0049 15.4642 42.5427 14.7512 42.2347 13.9669C41.9268 13.1827 41.7795 12.3434 41.8018 11.5ZM52.5281 11.5C52.5648 10.8902 52.4777 10.2793 52.272 9.70477C52.0663 9.13029 51.7465 8.60441 51.3322 8.1595C50.9179 7.7146 50.4178 7.36006 49.8628 7.11773C49.3079 6.87539 48.7097 6.75038 48.1051 6.75038C47.5006 6.75038 46.9024 6.87539 46.3474 7.11773C45.7924 7.36006 45.2924 7.7146 44.8781 8.1595C44.4638 8.60441 44.144 9.13029 43.9383 9.70477C43.7326 10.2793 43.6454 10.8902 43.6821 11.5C43.6454 12.1098 43.7326 12.7207 43.9383 13.2952C44.144 13.8697 44.4638 14.3956 44.8781 14.8405C45.2924 15.2854 45.7924 15.6399 46.3474 15.8822C46.9024 16.1246 47.5006 16.2496 48.1051 16.2496C48.7097 16.2496 49.3079 16.1246 49.8628 15.8822C50.4178 15.6399 50.9179 15.2854 51.3322 14.8405C51.7465 14.3956 52.0663 13.8697 52.272 13.2952C52.4777 12.7207 52.5648 12.1098 52.5281 11.5Z" fill="white"/>
<path d="M64.8242 14.1272V6.97271H62.5514V5.39477H64.9387V1.85059H66.6637V5.39477H70.3754V6.97271H66.6637V14.1024C66.6637 15.416 67.1951 15.986 68.4705 15.986H70.2119V17.6383H68.495C66.2876 17.597 64.8242 16.5891 64.8242 14.1272Z" fill="white"/>
<path d="M79.7937 0H81.625V7.17924H81.7722C82.1387 6.51218 82.6833 5.96257 83.3438 5.59303C84.0044 5.22349 84.7544 5.04887 85.5084 5.08908C88.3208 5.08908 90.0622 7.22881 90.0622 9.93032V17.597H88.2309V10.046C88.2434 9.61982 88.1694 9.19558 88.0135 8.79942C87.8576 8.40325 87.623 8.04355 87.3243 7.74247C87.0256 7.44138 86.669 7.20529 86.2766 7.04875C85.8841 6.89221 85.4641 6.81853 85.0424 6.83226C84.5973 6.81788 84.1538 6.89395 83.7383 7.05596C83.3228 7.21797 82.9437 7.46263 82.6235 7.77542C82.3033 8.08822 82.0484 8.46279 81.8741 8.87693C81.6998 9.29108 81.6095 9.73637 81.6087 10.1864V17.6218H79.7773L79.7937 0Z" fill="white"/>
<path d="M99.1208 11.5413C99.1208 7.65014 101.77 5.08908 104.975 5.08908C108.621 5.08908 110.697 7.67493 110.697 11.3348V12.0122H101.001C101.001 14.7385 102.636 16.2669 105.089 16.2669C105.91 16.3111 106.722 16.0695 107.388 15.5824C108.055 15.0954 108.536 14.3922 108.752 13.5902L110.542 14.0115C110.19 15.1819 109.462 16.2002 108.473 16.905C107.484 17.6099 106.29 17.961 105.081 17.9027C101.394 17.9027 99.1208 15.3003 99.1208 11.5413ZM108.833 10.5169C108.842 10.0089 108.747 9.50448 108.554 9.03517C108.362 8.56587 108.075 8.14169 107.713 7.78905C107.351 7.43642 106.921 7.16288 106.45 6.98548C105.979 6.80807 105.477 6.73061 104.975 6.7579C103.965 6.74627 102.991 7.13217 102.259 7.83384C101.526 8.53552 101.093 9.49784 101.05 10.5169H108.833Z" fill="white"/>
<path d="M120.009 5.39476H121.833V7.43535H121.972C122.221 6.75785 122.666 6.17179 123.249 5.75336C123.832 5.33492 124.527 5.10347 125.242 5.08908H126.059V6.94792H124.964C122.756 6.94792 121.857 8.75718 121.857 11.0787V17.597H120.018L120.009 5.39476Z" fill="white"/>
<path d="M135.11 0H136.949V10.1121H140.146L144.888 17.6218H142.705L139.132 11.8387H136.949V17.6218H135.11V0Z" fill="white"/>
<path d="M152.082 11.5C152.087 10.239 152.462 9.00765 153.159 7.96173C153.856 6.9158 154.845 6.10221 155.999 5.62377C157.154 5.14534 158.423 5.02353 159.646 5.27376C160.869 5.52399 161.992 6.13501 162.871 7.0296C163.751 7.92419 164.348 9.0622 164.588 10.2998C164.828 11.5374 164.699 12.819 164.218 13.9827C163.737 15.1463 162.925 16.1398 161.886 16.8375C160.846 17.5353 159.625 17.9059 158.377 17.9027C157.543 17.9197 156.713 17.7655 155.939 17.4492C155.165 17.133 154.462 16.6613 153.874 16.0627C153.285 15.4642 152.823 14.7512 152.515 13.967C152.207 13.1827 152.06 12.3435 152.082 11.5ZM162.809 11.5C162.845 10.8902 162.758 10.2793 162.553 9.7048C162.347 9.13032 162.027 8.60444 161.613 8.15953C161.198 7.71462 160.698 7.36009 160.143 7.11776C159.588 6.87542 158.99 6.75041 158.386 6.75041C157.781 6.75041 157.183 6.87542 156.628 7.11776C156.073 7.36009 155.573 7.71462 155.159 8.15953C154.744 8.60444 154.424 9.13032 154.219 9.7048C154.013 10.2793 153.926 10.8902 153.963 11.5C153.926 12.1098 154.013 12.7207 154.219 13.2952C154.424 13.8697 154.744 14.3956 155.159 14.8405C155.573 15.2854 156.073 15.6399 156.628 15.8823C157.183 16.1246 157.781 16.2496 158.386 16.2496C158.99 16.2496 159.588 16.1246 160.143 15.8823C160.698 15.6399 161.198 15.2854 161.613 14.8405C162.027 14.3956 162.347 13.8697 162.553 13.2952C162.758 12.7207 162.845 12.1098 162.809 11.5Z" fill="white"/>
<path d="M174.009 5.39474H175.849V7.17922H175.979C176.336 6.51285 176.873 5.9626 177.527 5.59256C178.181 5.22251 178.926 5.04791 179.675 5.08907C182.487 5.08907 184.18 7.22879 184.18 9.9303V17.597H182.332V10.046C182.349 9.62499 182.28 9.20498 182.13 8.81177C181.981 8.41856 181.753 8.06045 181.461 7.75945C181.169 7.45845 180.82 7.22093 180.434 7.06147C180.048 6.90202 179.634 6.82402 179.217 6.83224C178.765 6.82639 178.316 6.91334 177.898 7.08784C177.48 7.26234 177.101 7.52076 176.784 7.84746C176.468 8.17416 176.22 8.56235 176.057 8.98852C175.893 9.41469 175.817 9.86999 175.832 10.3269V17.597H173.993L174.009 5.39474Z" fill="white"/>
<path d="M193.483 15.3251L200.841 7.11314V6.97269H193.688V5.39474H202.558V7.67492L195.2 15.8868V16.0273H202.681V17.597H193.483V15.3251Z" fill="white"/>
<path d="M211.282 11.5413C211.282 7.65014 213.922 5.08908 217.135 5.08908C220.774 5.08908 222.858 7.67493 222.858 11.3348V12.0122H213.162C213.162 14.7385 214.797 16.2669 217.25 16.2669C218.068 16.3057 218.875 16.0617 219.538 15.5752C220.201 15.0887 220.68 14.3886 220.896 13.5902L222.679 14.0115C222.33 15.182 221.603 16.2009 220.615 16.906C219.627 17.6111 218.434 17.962 217.225 17.9027C213.579 17.9027 211.282 15.3003 211.282 11.5413ZM220.986 10.5169C220.997 10.0089 220.904 9.50414 220.713 9.03429C220.521 8.56443 220.236 8.13965 219.874 7.78664C219.512 7.43362 219.083 7.16 218.611 6.98296C218.14 6.80593 217.637 6.7293 217.135 6.7579C216.126 6.74417 215.15 7.12937 214.417 7.83148C213.684 8.53359 213.252 9.49712 213.211 10.5169H220.986Z" fill="white"/>
<path d="M232.203 5.39474H233.961V7.32793H234.108C234.538 6.62846 235.141 6.05466 235.858 5.6634C236.575 5.27215 237.381 5.07701 238.196 5.09733C241.629 5.09733 244.09 7.74926 244.09 11.4835C244.09 15.2177 241.744 17.9109 238.367 17.9109C237.537 17.9556 236.711 17.7669 235.981 17.3658C235.251 16.9648 234.645 16.367 234.231 15.639H234.092V23.0248H232.203V5.39474ZM242.153 11.4587C242.153 8.59194 240.346 6.76615 238.024 6.76615C235.514 6.76615 233.936 8.89761 233.936 11.4587C233.936 14.4659 235.8 16.2008 238.073 16.2008C240.346 16.2008 242.153 14.2676 242.153 11.4587Z" fill="white"/>
<path d="M254.449 14.1272V6.97271H252.176V5.39477H254.563V1.85059H256.288V5.39477H260V6.97271H256.288V14.1024C256.288 15.416 256.82 15.986 258.095 15.986H259.836V17.6383H258.12C255.912 17.597 254.449 16.5891 254.449 14.1272Z" fill="white"/>
<path d="M142.836 4.90731C142.559 4.90897 142.289 4.99365 142.06 5.15061C141.83 5.30757 141.652 5.52976 141.548 5.789C141.444 6.04824 141.419 6.33286 141.475 6.60679C141.531 6.88072 141.667 7.13163 141.864 7.32769C142.062 7.52376 142.312 7.65617 142.584 7.70814C142.856 7.7601 143.137 7.72928 143.392 7.61958C143.647 7.50988 143.864 7.32625 144.015 7.09195C144.166 6.85765 144.245 6.58324 144.242 6.3035C144.247 6.11676 144.213 5.93104 144.144 5.75788C144.074 5.58472 143.971 5.4278 143.839 5.29688C143.707 5.16596 143.55 5.06382 143.377 4.99681C143.205 4.92979 143.02 4.89933 142.836 4.90731Z" fill="#E9521D"/>
</g>
<defs>
<clipPath id="clip0_3_22">
<rect width="260" height="23" fill="white"/>
</clipPath>
</defs>
</svg>
